<?xml version="1.0" encoding="UTF-8"?>
<svg xmlns="http://www.w3.org/2000/svg" xmlns:xlink="http://www.w3.org/1999/xlink" width="60pt" height="60pt" viewBox="0 0 60 60" version="1.1">
<g id="surface1">
<path style=" stroke:none;fill-rule:nonzero;fill:rgb(40,60,150);fill-opacity:1;" d="M 26.601562 3.070312 C 26.0625 3.128906 25.324219 3.304688 24.960938 3.445312 C 24.609375 3.597656 24.164062 3.761719 23.964844 3.796875 C 23.378906 3.9375 21.972656 4.769531 20.953125 5.589844 C 20.425781 6 19.640625 6.527344 19.21875 6.738281 C 18.796875 6.960938 18.210938 7.3125 17.917969 7.523438 C 15.515625 9.234375 14.929688 9.714844 14.601562 10.195312 C 14.402344 10.476562 13.816406 11.144531 13.300781 11.660156 C 12.738281 12.222656 11.90625 13.253906 11.238281 14.238281 C 10.628906 15.140625 9.773438 16.382812 9.351562 17.003906 C 8.121094 18.796875 6.609375 22.078125 6.292969 23.683594 C 5.90625 25.558594 6.035156 31.101562 6.503906 33.222656 C 6.609375 33.667969 6.761719 34.5 6.855469 35.0625 C 6.949219 35.613281 7.148438 36.375 7.3125 36.761719 C 7.910156 38.238281 8.800781 41.261719 9.304688 43.558594 C 9.398438 44.027344 9.585938 44.636719 9.714844 44.90625 C 9.84375 45.1875 10.042969 45.644531 10.171875 45.9375 C 10.558594 46.851562 11.472656 48.199219 12.585938 49.535156 C 12.773438 49.757812 13.171875 50.097656 13.464844 50.296875 C 14.121094 50.742188 16.21875 52.582031 17.882812 54.164062 C 18.925781 55.148438 19.277344 55.417969 20.191406 55.839844 C 21.527344 56.472656 22.699219 56.71875 24.339844 56.71875 C 26.472656 56.71875 28.148438 56.449219 30.257812 55.769531 C 32.273438 55.113281 32.050781 55.136719 34.277344 55.429688 C 35.484375 55.59375 37.523438 55.511719 38.320312 55.265625 C 39.9375 54.761719 41.097656 53.976562 41.859375 52.875 C 42.421875 52.066406 43.394531 51.65625 44.859375 51.621094 C 46.289062 51.597656 47.273438 51.28125 48.433594 50.507812 C 49.300781 49.921875 49.886719 49.347656 51.796875 47.167969 C 53.003906 45.796875 53.542969 45.234375 54.164062 44.742188 C 54.667969 44.34375 55.476562 42.808594 55.664062 41.882812 C 55.804688 41.203125 55.804688 40.875 55.558594 37.792969 C 55.453125 36.457031 55.195312 35.449219 54.492188 33.714844 C 53.566406 31.417969 52.933594 30.492188 51.703125 29.695312 C 51.328125 29.460938 50.777344 29.0625 50.449219 28.828125 C 50.132812 28.59375 49.628906 28.300781 49.335938 28.195312 C 48.667969 27.9375 48.117188 27.597656 47.519531 27.105469 C 47.273438 26.882812 46.523438 26.449219 45.867188 26.121094 C 45.210938 25.804688 44.601562 25.453125 44.507812 25.347656 C 44.167969 24.925781 42.5625 23.730469 41.964844 23.460938 C 41.261719 23.132812 40.78125 22.6875 38.8125 20.519531 C 36.46875 17.953125 35.566406 16.066406 35.027344 12.703125 C 34.910156 11.917969 34.722656 11.097656 34.628906 10.863281 C 34.511719 10.570312 34.453125 10.019531 34.453125 9.070312 C 34.453125 7.699219 34.453125 7.6875 33.902344 6.292969 C 33.398438 5.027344 33.28125 4.839844 32.671875 4.277344 C 32.308594 3.9375 31.78125 3.550781 31.5 3.421875 C 30.527344 2.953125 28.792969 2.824219 26.601562 3.070312 Z M 35.90625 34.101562 C 37.382812 34.617188 37.863281 34.804688 38.90625 35.332031 C 40.558594 36.152344 40.734375 36.257812 41.296875 36.773438 C 41.578125 37.03125 42.035156 37.359375 42.304688 37.5 C 42.972656 37.839844 43.710938 38.976562 43.710938 39.667969 C 43.710938 39.996094 43.628906 40.265625 43.464844 40.476562 C 43.242188 40.757812 43.148438 40.78125 42.410156 40.78125 C 41.53125 40.78125 41.308594 40.863281 40.664062 41.390625 C 40.359375 41.636719 40.136719 41.71875 39.773438 41.71875 C 39.105469 41.71875 38.554688 42.117188 38.320312 42.761719 C 38.15625 43.230469 38.097656 43.289062 37.5 43.488281 C 37.148438 43.605469 36.84375 43.710938 36.84375 43.710938 C 36.785156 43.722656 36.445312 44.683594 36.445312 44.847656 C 36.445312 45.082031 36 45.585938 35.800781 45.585938 C 35.589844 45.585938 34.96875 45.914062 34.804688 46.113281 C 34.734375 46.195312 34.628906 46.523438 34.59375 46.839844 C 34.488281 47.53125 34.054688 47.871094 33.140625 47.976562 C 32.226562 48.082031 31.722656 47.90625 30.773438 47.179688 C 30.304688 46.828125 29.554688 46.382812 29.097656 46.195312 C 28.078125 45.785156 27.5625 45.375 26.882812 44.449219 C 26.589844 44.050781 26.273438 43.664062 26.179688 43.582031 C 25.300781 42.855469 25.171875 39.679688 25.945312 37.933594 C 26.132812 37.5 26.460938 37.089844 27.058594 36.550781 C 27.9375 35.742188 29.976562 34.441406 30.832031 34.136719 C 31.992188 33.714844 34.757812 33.703125 35.90625 34.101562 Z M 35.90625 34.101562 "/>
<path style=" stroke:none;fill-rule:nonzero;fill:rgb(200,218,234);fill-opacity:1;" d="M 32.167969 33.855469 C 31.066406 33.984375 30.550781 34.183594 29.109375 35.050781 C 27.515625 36.011719 26.308594 37.113281 25.945312 37.933594 C 25.558594 38.789062 25.394531 40.042969 25.464844 41.378906 C 25.523438 42.503906 25.757812 43.230469 26.179688 43.582031 C 26.273438 43.664062 26.589844 44.050781 26.882812 44.449219 C 27.5625 45.375 28.078125 45.785156 29.097656 46.195312 C 29.554688 46.382812 30.304688 46.828125 30.773438 47.179688 C 31.722656 47.90625 32.226562 48.082031 33.140625 47.976562 C 34.054688 47.871094 34.488281 47.53125 34.59375 46.839844 C 34.628906 46.523438 34.734375 46.195312 34.804688 46.113281 C 34.96875 45.914062 35.589844 45.585938 35.800781 45.585938 C 36 45.585938 36.445312 45.082031 36.445312 44.847656 C 36.445312 44.683594 36.785156 43.722656 36.84375 43.710938 C 36.84375 43.710938 37.148438 43.605469 37.5 43.488281 C 38.097656 43.289062 38.15625 43.230469 38.320312 42.761719 C 38.554688 42.117188 39.105469 41.71875 39.773438 41.71875 C 40.136719 41.71875 40.359375 41.636719 40.664062 41.390625 C 41.308594 40.863281 41.53125 40.78125 42.410156 40.78125 C 43.148438 40.78125 43.242188 40.757812 43.464844 40.476562 C 43.628906 40.265625 43.710938 39.996094 43.710938 39.667969 C 43.710938 38.976562 42.972656 37.839844 42.304688 37.5 C 42.035156 37.359375 41.578125 37.03125 41.296875 36.773438 C 40.734375 36.257812 40.558594 36.152344 38.90625 35.332031 C 37.863281 34.804688 37.382812 34.617188 35.90625 34.101562 C 35.191406 33.855469 33.339844 33.738281 32.167969 33.855469 Z M 32.167969 33.855469 "/>
</g>
</svg>
