<?xml version="1.0" encoding="UTF-8"?>
<svg xmlns="http://www.w3.org/2000/svg" xmlns:xlink="http://www.w3.org/1999/xlink" width="20pt" height="20pt" viewBox="0 0 20 20" version="1.1">
<g id="surface1">
<path style=" stroke:none;fill-rule:nonzero;fill:rgb(15.686275%,23.529412%,58.823529%);fill-opacity:1;" d="M 8.867188 1.023438 C 8.6875 1.042969 8.441406 1.101562 8.320312 1.148438 C 8.203125 1.199219 8.054688 1.253906 7.988281 1.265625 C 7.792969 1.3125 7.324219 1.589844 6.984375 1.863281 C 6.808594 2 6.546875 2.175781 6.40625 2.246094 C 6.265625 2.320312 6.070312 2.4375 5.972656 2.507812 C 5.171875 3.078125 4.976562 3.238281 4.867188 3.398438 C 4.800781 3.492188 4.605469 3.714844 4.433594 3.886719 C 4.246094 4.074219 3.96875 4.417969 3.746094 4.746094 C 3.542969 5.046875 3.257812 5.460938 3.117188 5.667969 C 2.707031 6.265625 2.203125 7.359375 2.097656 7.894531 C 1.96875 8.519531 2.011719 10.367188 2.167969 11.074219 C 2.203125 11.222656 2.253906 11.5 2.285156 11.6875 C 2.316406 11.871094 2.382812 12.125 2.4375 12.253906 C 2.636719 12.746094 2.933594 13.753906 3.101562 14.519531 C 3.132812 14.675781 3.195312 14.878906 3.238281 14.96875 C 3.28125 15.0625 3.347656 15.214844 3.390625 15.3125 C 3.519531 15.617188 3.824219 16.066406 4.195312 16.511719 C 4.257812 16.585938 4.390625 16.699219 4.488281 16.765625 C 4.707031 16.914062 5.40625 17.527344 5.960938 18.054688 C 6.308594 18.382812 6.425781 18.472656 6.730469 18.613281 C 7.175781 18.824219 7.566406 18.90625 8.113281 18.90625 C 8.824219 18.90625 9.382812 18.816406 10.085938 18.589844 C 10.757812 18.371094 10.683594 18.378906 11.425781 18.476562 C 11.828125 18.53125 12.507812 18.503906 12.773438 18.421875 C 13.3125 18.253906 13.699219 17.992188 13.953125 17.625 C 14.140625 17.355469 14.464844 17.21875 14.953125 17.207031 C 15.429688 17.199219 15.757812 17.09375 16.144531 16.835938 C 16.433594 16.640625 16.628906 16.449219 17.265625 15.722656 C 17.667969 15.265625 17.847656 15.078125 18.054688 14.914062 C 18.222656 14.78125 18.492188 14.269531 18.554688 13.960938 C 18.601562 13.734375 18.601562 13.625 18.519531 12.597656 C 18.484375 12.152344 18.398438 11.816406 18.164062 11.238281 C 17.855469 10.472656 17.644531 10.164062 17.234375 9.898438 C 17.109375 9.820312 16.925781 9.6875 16.816406 9.609375 C 16.710938 9.53125 16.542969 9.433594 16.445312 9.398438 C 16.222656 9.3125 16.039062 9.199219 15.839844 9.035156 C 15.757812 8.960938 15.507812 8.816406 15.289062 8.707031 C 15.070312 8.601562 14.867188 8.484375 14.835938 8.449219 C 14.722656 8.308594 14.1875 7.910156 13.988281 7.820312 C 13.753906 7.710938 13.59375 7.5625 12.9375 6.839844 C 12.15625 5.984375 11.855469 5.355469 11.675781 4.234375 C 11.636719 3.972656 11.574219 3.699219 11.542969 3.621094 C 11.503906 3.523438 11.484375 3.339844 11.484375 3.023438 C 11.484375 2.566406 11.484375 2.5625 11.300781 2.097656 C 11.132812 1.675781 11.09375 1.613281 10.890625 1.425781 C 10.769531 1.3125 10.59375 1.183594 10.5 1.140625 C 10.175781 0.984375 9.597656 0.941406 8.867188 1.023438 Z M 11.96875 11.367188 C 12.460938 11.539062 12.621094 11.601562 12.96875 11.777344 C 13.519531 12.050781 13.578125 12.085938 13.765625 12.257812 C 13.859375 12.34375 14.011719 12.453125 14.101562 12.5 C 14.324219 12.613281 14.570312 12.992188 14.570312 13.222656 C 14.570312 13.332031 14.542969 13.421875 14.488281 13.492188 C 14.414062 13.585938 14.382812 13.59375 14.136719 13.59375 C 13.84375 13.59375 13.769531 13.621094 13.554688 13.796875 C 13.453125 13.878906 13.378906 13.90625 13.257812 13.90625 C 13.035156 13.90625 12.851562 14.039062 12.773438 14.253906 C 12.71875 14.410156 12.699219 14.429688 12.5 14.496094 C 12.382812 14.535156 12.28125 14.570312 12.28125 14.570312 C 12.261719 14.574219 12.148438 14.894531 12.148438 14.949219 C 12.148438 15.027344 12 15.195312 11.933594 15.195312 C 11.863281 15.195312 11.65625 15.304688 11.601562 15.371094 C 11.578125 15.398438 11.542969 15.507812 11.53125 15.613281 C 11.496094 15.84375 11.351562 15.957031 11.046875 15.992188 C 10.742188 16.027344 10.574219 15.96875 10.257812 15.726562 C 10.101562 15.609375 9.851562 15.460938 9.699219 15.398438 C 9.359375 15.261719 9.1875 15.125 8.960938 14.816406 C 8.863281 14.683594 8.757812 14.554688 8.726562 14.527344 C 8.433594 14.285156 8.390625 13.226562 8.648438 12.644531 C 8.710938 12.5 8.820312 12.363281 9.019531 12.183594 C 9.3125 11.914062 9.992188 11.480469 10.277344 11.378906 C 10.664062 11.238281 11.585938 11.234375 11.96875 11.367188 Z M 11.96875 11.367188 "/>
<path style=" stroke:none;fill-rule:nonzero;fill:rgb(78.431373%,85.490196%,91.764706%);fill-opacity:1;" d="M 10.722656 11.285156 C 10.355469 11.328125 10.183594 11.394531 9.703125 11.683594 C 9.171875 12.003906 8.769531 12.371094 8.648438 12.644531 C 8.519531 12.929688 8.464844 13.347656 8.488281 13.792969 C 8.507812 14.167969 8.585938 14.410156 8.726562 14.527344 C 8.757812 14.554688 8.863281 14.683594 8.960938 14.816406 C 9.1875 15.125 9.359375 15.261719 9.699219 15.398438 C 9.851562 15.460938 10.101562 15.609375 10.257812 15.726562 C 10.574219 15.96875 10.742188 16.027344 11.046875 15.992188 C 11.351562 15.957031 11.496094 15.84375 11.53125 15.613281 C 11.542969 15.507812 11.578125 15.398438 11.601562 15.371094 C 11.65625 15.304688 11.863281 15.195312 11.933594 15.195312 C 12 15.195312 12.148438 15.027344 12.148438 14.949219 C 12.148438 14.894531 12.261719 14.574219 12.28125 14.570312 C 12.28125 14.570312 12.382812 14.535156 12.5 14.496094 C 12.699219 14.429688 12.71875 14.410156 12.773438 14.253906 C 12.851562 14.039062 13.035156 13.90625 13.257812 13.90625 C 13.378906 13.90625 13.453125 13.878906 13.554688 13.796875 C 13.769531 13.621094 13.84375 13.59375 14.136719 13.59375 C 14.382812 13.59375 14.414062 13.585938 14.488281 13.492188 C 14.542969 13.421875 14.570312 13.332031 14.570312 13.222656 C 14.570312 12.992188 14.324219 12.613281 14.101562 12.5 C 14.011719 12.453125 13.859375 12.34375 13.765625 12.257812 C 13.578125 12.085938 13.519531 12.050781 12.96875 11.777344 C 12.621094 11.601562 12.460938 11.539062 11.96875 11.367188 C 11.730469 11.285156 11.113281 11.246094 10.722656 11.285156 Z M 10.722656 11.285156 "/>
</g>
</svg>
