<?xml version="1.0" standalone="no"?>
<!DOCTYPE svg PUBLIC "-//W3C//DTD SVG 20010904//EN"
 "http://www.w3.org/TR/2001/REC-SVG-20010904/DTD/svg10.dtd">
<svg version="1.0" xmlns="http://www.w3.org/2000/svg"
 width="512.000000pt" height="512.000000pt" viewBox="0 0 512.000000 512.000000"
 preserveAspectRatio="xMidYMid meet">
<g transform="translate(0.000000,512.000000) scale(0.100000,-0.100000)"
fill="#2020FF" stroke="none">
<path d="M2270 4858 c-46 -5 -109 -20 -140 -32 -30 -13 -68 -27 -85 -30 -50
-12 -170 -83 -257 -153 -45 -35 -112 -80 -148 -98 -36 -19 -86 -49 -111 -67
-205 -146 -255 -187 -283 -228 -17 -24 -67 -81 -111 -125 -48 -48 -119 -136
-176 -220 -52 -77 -125 -183 -161 -236 -105 -153 -234 -433 -261 -570 -33
-160 -22 -633 18 -814 9 -38 22 -109 30 -157 8 -47 25 -112 39 -145 51 -126
127 -384 170 -580 8 -40 24 -92 35 -115 11 -24 28 -63 39 -88 33 -78 111 -193
206 -307 16 -19 50 -48 75 -65 56 -38 235 -195 377 -330 89 -84 119 -107 197
-143 114 -54 214 -75 354 -75 182 0 325 23 505 81 172 56 153 54 343 29 103
-14 277 -7 345 14 138 43 237 110 302 204 48 69 131 104 256 107 122 2 206 29
305 95 74 50 124 99 287 285 103 117 149 165 202 207 43 34 112 165 128 244
12 58 12 86 -9 349 -9 114 -31 200 -91 348 -79 196 -133 275 -238 343 -32 20
-79 54 -107 74 -27 20 -70 45 -95 54 -57 22 -104 51 -155 93 -21 19 -85 56
-141 84 -56 27 -108 57 -116 66 -29 36 -166 138 -217 161 -60 28 -101 66 -269
251 -200 219 -277 380 -323 667 -10 67 -26 137 -34 157 -10 25 -15 72 -15 153
0 117 0 118 -47 237 -43 108 -53 124 -105 172 -31 29 -76 62 -100 73 -83 40
-231 51 -418 30z m794 -2648 c126 -44 167 -60 256 -105 141 -70 156 -79 204
-123 24 -22 63 -50 86 -62 57 -29 120 -126 120 -185 0 -28 -7 -51 -21 -69 -19
-24 -27 -26 -90 -26 -75 0 -94 -7 -149 -52 -26 -21 -45 -28 -76 -28 -57 0
-104 -34 -124 -89 -14 -40 -19 -45 -70 -62 -30 -10 -56 -19 -56 -19 -5 -1 -34
-83 -34 -97 0 -20 -38 -63 -55 -63 -18 0 -71 -28 -85 -45 -6 -7 -15 -35 -18
-62 -9 -59 -46 -88 -124 -97 -78 -9 -121 6 -202 68 -40 30 -104 68 -143 84
-87 35 -131 70 -189 149 -25 34 -52 67 -60 74 -75 62 -86 333 -20 482 16 37
44 72 95 118 75 69 249 180 322 206 99 36 335 37 433 3z"/>
</g>
<g transform="translate(0.000000,512.000000) scale(0.100000,-0.100000)"
fill="#2020AA" stroke="none">
<path d="M2745 2231 c-94 -11 -138 -28 -261 -102 -136 -82 -239 -176 -270
-246 -33 -73 -47 -180 -41 -294 5 -96 25 -158 61 -188 8 -7 35 -40 60 -74 58
-79 102 -114 189 -149 39 -16 103 -54 143 -84 81 -62 124 -77 202 -68 78 9
115 38 124 97 3 27 12 55 18 62 14 17 67 45 85 45 17 0 55 43 55 63 0 14 29
96 34 97 0 0 26 9 56 19 51 17 56 22 70 62 20 55 67 89 124 89 31 0 50 7 76
28 55 45 74 52 149 52 63 0 71 2 90 26 14 18 21 41 21 69 0 59 -63 156 -120
185 -23 12 -62 40 -86 62 -48 44 -63 53 -204 123 -89 45 -130 61 -256 105 -61
21 -219 31 -319 21z"/>
</g>
</svg>
