<?xml version="1.0" encoding="UTF-8"?>
<svg xmlns="http://www.w3.org/2000/svg" xmlns:xlink="http://www.w3.org/1999/xlink" width="240pt" height="240pt" viewBox="0 0 240 240" version="1.1">
<g id="surface1">
<path style=" stroke:none;fill-rule:nonzero;fill:rgb(12.54902%,12.54902%,100%);fill-opacity:1;" d="M 106.40625 12.28125 C 104.25 12.515625 101.296875 13.21875 99.84375 13.78125 C 98.4375 14.390625 96.65625 15.046875 95.859375 15.1875 C 93.515625 15.75 87.890625 19.078125 83.8125 22.359375 C 81.703125 24 78.5625 26.109375 76.875 26.953125 C 75.1875 27.84375 72.84375 29.25 71.671875 30.09375 C 62.0625 36.9375 59.71875 38.859375 58.40625 40.78125 C 57.609375 41.90625 55.265625 44.578125 53.203125 46.640625 C 50.953125 48.890625 47.625 53.015625 44.953125 56.953125 C 42.515625 60.5625 39.09375 65.53125 37.40625 68.015625 C 32.484375 75.1875 26.4375 88.3125 25.171875 94.734375 C 23.625 102.234375 24.140625 124.40625 26.015625 132.890625 C 26.4375 134.671875 27.046875 138 27.421875 140.25 C 27.796875 142.453125 28.59375 145.5 29.25 147.046875 C 31.640625 152.953125 35.203125 165.046875 37.21875 174.234375 C 37.59375 176.109375 38.34375 178.546875 38.859375 179.625 C 39.375 180.75 40.171875 182.578125 40.6875 183.75 C 42.234375 187.40625 45.890625 192.796875 50.34375 198.140625 C 51.09375 199.03125 52.6875 200.390625 53.859375 201.1875 C 56.484375 202.96875 64.875 210.328125 71.53125 216.65625 C 75.703125 220.59375 77.109375 221.671875 80.765625 223.359375 C 86.109375 225.890625 90.796875 226.875 97.359375 226.875 C 105.890625 226.875 112.59375 225.796875 121.03125 223.078125 C 129.09375 220.453125 128.203125 220.546875 137.109375 221.71875 C 141.9375 222.375 150.09375 222.046875 153.28125 221.0625 C 159.75 219.046875 164.390625 215.90625 167.4375 211.5 C 169.6875 208.265625 173.578125 206.625 179.4375 206.484375 C 185.15625 206.390625 189.09375 205.125 193.734375 202.03125 C 197.203125 199.6875 199.546875 197.390625 207.1875 188.671875 C 212.015625 183.1875 214.171875 180.9375 216.65625 178.96875 C 218.671875 177.375 221.90625 171.234375 222.65625 167.53125 C 223.21875 164.8125 223.21875 163.5 222.234375 151.171875 C 221.8125 145.828125 220.78125 141.796875 217.96875 134.859375 C 214.265625 125.671875 211.734375 121.96875 206.8125 118.78125 C 205.3125 117.84375 203.109375 116.25 201.796875 115.3125 C 200.53125 114.375 198.515625 113.203125 197.34375 112.78125 C 194.671875 111.75 192.46875 110.390625 190.078125 108.421875 C 189.09375 107.53125 186.09375 105.796875 183.46875 104.484375 C 180.84375 103.21875 178.40625 101.8125 178.03125 101.390625 C 176.671875 99.703125 170.25 94.921875 167.859375 93.84375 C 165.046875 92.53125 163.125 90.75 155.25 82.078125 C 145.875 71.8125 142.265625 64.265625 140.109375 50.8125 C 139.640625 47.671875 138.890625 44.390625 138.515625 43.453125 C 138.046875 42.28125 137.8125 40.078125 137.8125 36.28125 C 137.8125 30.796875 137.8125 30.75 135.609375 25.171875 C 133.59375 20.109375 133.125 19.359375 130.6875 17.109375 C 129.234375 15.75 127.125 14.203125 126 13.6875 C 122.109375 11.8125 115.171875 11.296875 106.40625 12.28125 Z M 143.625 136.40625 C 149.53125 138.46875 151.453125 139.21875 155.625 141.328125 C 162.234375 144.609375 162.9375 145.03125 165.1875 147.09375 C 166.3125 148.125 168.140625 149.4375 169.21875 150 C 171.890625 151.359375 174.84375 155.90625 174.84375 158.671875 C 174.84375 159.984375 174.515625 161.0625 173.859375 161.90625 C 172.96875 163.03125 172.59375 163.125 169.640625 163.125 C 166.125 163.125 165.234375 163.453125 162.65625 165.5625 C 161.4375 166.546875 160.546875 166.875 159.09375 166.875 C 156.421875 166.875 154.21875 168.46875 153.28125 171.046875 C 152.625 172.921875 152.390625 173.15625 150 173.953125 C 148.59375 174.421875 147.375 174.84375 147.375 174.84375 C 147.140625 174.890625 145.78125 178.734375 145.78125 179.390625 C 145.78125 180.328125 144 182.34375 143.203125 182.34375 C 142.359375 182.34375 139.875 183.65625 139.21875 184.453125 C 138.9375 184.78125 138.515625 186.09375 138.375 187.359375 C 137.953125 190.125 136.21875 191.484375 132.5625 191.90625 C 128.90625 192.328125 126.890625 191.625 123.09375 188.71875 C 121.21875 187.3125 118.21875 185.53125 116.390625 184.78125 C 112.3125 183.140625 110.25 181.5 107.53125 177.796875 C 106.359375 176.203125 105.09375 174.65625 104.71875 174.328125 C 101.203125 171.421875 100.6875 158.71875 103.78125 151.734375 C 104.53125 150 105.84375 148.359375 108.234375 146.203125 C 111.75 142.96875 119.90625 137.765625 123.328125 136.546875 C 127.96875 134.859375 139.03125 134.8125 143.625 136.40625 Z M 143.625 136.40625 "/>
<path style=" stroke:none;fill-rule:nonzero;fill:rgb(12.54902%,12.54902%,66.666667%);fill-opacity:1;" d="M 128.671875 135.421875 C 124.265625 135.9375 122.203125 136.734375 116.4375 140.203125 C 110.0625 144.046875 105.234375 148.453125 103.78125 151.734375 C 102.234375 155.15625 101.578125 160.171875 101.859375 165.515625 C 102.09375 170.015625 103.03125 172.921875 104.71875 174.328125 C 105.09375 174.65625 106.359375 176.203125 107.53125 177.796875 C 110.25 181.5 112.3125 183.140625 116.390625 184.78125 C 118.21875 185.53125 121.21875 187.3125 123.09375 188.71875 C 126.890625 191.625 128.90625 192.328125 132.5625 191.90625 C 136.21875 191.484375 137.953125 190.125 138.375 187.359375 C 138.515625 186.09375 138.9375 184.78125 139.21875 184.453125 C 139.875 183.65625 142.359375 182.34375 143.203125 182.34375 C 144 182.34375 145.78125 180.328125 145.78125 179.390625 C 145.78125 178.734375 147.140625 174.890625 147.375 174.84375 C 147.375 174.84375 148.59375 174.421875 150 173.953125 C 152.390625 173.15625 152.625 172.921875 153.28125 171.046875 C 154.21875 168.46875 156.421875 166.875 159.09375 166.875 C 160.546875 166.875 161.4375 166.546875 162.65625 165.5625 C 165.234375 163.453125 166.125 163.125 169.640625 163.125 C 172.59375 163.125 172.96875 163.03125 173.859375 161.90625 C 174.515625 161.0625 174.84375 159.984375 174.84375 158.671875 C 174.84375 155.90625 171.890625 151.359375 169.21875 150 C 168.140625 149.4375 166.3125 148.125 165.1875 147.09375 C 162.9375 145.03125 162.234375 144.609375 155.625 141.328125 C 151.453125 139.21875 149.53125 138.46875 143.625 136.40625 C 140.765625 135.421875 133.359375 134.953125 128.671875 135.421875 Z M 128.671875 135.421875 "/>
</g>
</svg>
